<?xml version="1.0" encoding="utf-8"?>
<!-- Svg Vector Icons : http://www.onlinewebfonts.com/icon -->
<!DOCTYPE svg PUBLIC "-//W3C//DTD SVG 1.1//EN" "http://www.w3.org/Graphics/SVG/1.1/DTD/svg11.dtd">
<svg version="1.1" xmlns="http://www.w3.org/2000/svg" xmlns:xlink="http://www.w3.org/1999/xlink" x="0px" y="0px" viewBox="0 0 1000 1000" enable-background="new 0 0 1000 1000" xml:space="preserve">
<metadata> Svg Vector Icons : http://www.onlinewebfonts.com/icon </metadata>
<g><g><path d="M46.9,315.6l223.7,92.2c4.1,1.7,8.4,2.5,12.6,2.5c11.4,0,22.3-5.9,28.4-16.2l100.7-169.6l184-90.5l5.7,83.6c0.2,2.5,1.9,4.6,4.2,5.3c2.4,0.7,4.9-0.1,6.5-2.1L766.9,20c1.5-2,1.8-4.7,0.7-7c-1.1-2.3-3.4-3.7-5.9-3.7L508.3,8.8c-2.5,0-4.7,1.5-5.6,3.8c-0.9,2.3-0.2,4.9,1.6,6.6l62.8,55.5l-192.8,94.9c-5.8,2.8-10.6,7.3-13.8,12.8l-91.2,153.5L72.2,254.6c-16.9-7-36.2,1.1-43.2,17.9C22,289.4,30.1,308.7,46.9,315.6z"/><path d="M940.5,892.1H59.6c-27.4,0-49.6,22.2-49.6,49.6c0,27.4,22.2,49.5,49.6,49.5h880.9c27.4,0,49.5-22.2,49.5-49.5C990,914.3,967.8,892.1,940.5,892.1z"/><path d="M108.5,488.8c-11,0-20,9-20,20V806c0,11,9,20,20,20h116.9c11.1,0,20-9,20-20V508.8c0-11-9-20-20-20H108.5L108.5,488.8z"/><path d="M754.6,171.6V806c0,11,9,20,20,20h116.9c11,0,20-9,20-20V171.6c0-11-9-20-20-20H774.6C763.6,151.6,754.6,160.6,754.6,171.6z"/><path d="M552.6,328.5c-11.1,0-20,9-20,20V806c0,11,9,20,20,20h116.9c11,0,20-9,20-20V348.5c0-11-9-20-20-20H552.6z"/><path d="M330.6,577.2c-11.1,0-20,9-20,20V806c0,11,9,20,20,20h116.8c11.1,0,20-9,20-20V597.3c0-11-9-20-20-20H330.6z"/></g><g></g><g></g><g></g><g></g><g></g><g></g><g></g><g></g><g></g><g></g><g></g><g></g><g></g><g></g><g></g></g>
</svg>